<?xml version="1.0" encoding="UTF-8"?>
<svg id="Layer_2" data-name="Layer 2" xmlns="http://www.w3.org/2000/svg" viewBox="0 0 1560.35 484.86">
  <defs>
    <style>
      .cls-1 {
        fill: #fe3f30;
      }
    </style>
  </defs>
  <g id="Layer_1-2" data-name="Layer 1">
    <g>
      <path class="cls-1" d="M9.88,4.01h35.44c5.45,0,9.88,4.42,9.88,9.88v281.28c0,5.45,4.42,9.88,9.88,9.88h71.06c5.45,0,9.88,4.42,9.88,9.88v30.42c0,5.45-4.42,9.88-9.88,9.88H9.88c-5.45,0-9.88-4.42-9.88-9.88V13.89C0,8.44,4.42,4.01,9.88,4.01Z"/>
      <path class="cls-1" d="M235.15,152.02h56.01c5.45,0,9.88,4.42,9.88,9.88v30.42c0,5.45-4.42,9.88-9.88,9.88h-56.01c-5.45,0-9.88,4.42-9.88,9.88v83.1c0,5.45,4.42,9.88,9.88,9.88h75.58c5.45,0,9.88,4.42,9.88,9.88v30.42c0,5.45-4.42,9.88-9.88,9.88h-130.77c-5.45,0-9.88-4.42-9.88-9.88V13.89c0-5.45,4.42-9.88,9.88-9.88h130.77c5.45,0,9.88,4.42,9.88,9.88v30.42c0,5.45-4.42,9.88-9.88,9.88h-75.58c-5.45,0-9.88,4.42-9.88,9.88v78.08c0,5.45,4.42,9.88,9.88,9.88Z"/>
      <path class="cls-1" d="M447.38,159.55h57.51c5.45,0,9.88,4.42,9.88,9.88v101.51c0,56.19-28.1,88.3-82.28,88.3s-82.28-32.11-82.28-88.3V88.3c0-56.19,28.1-88.3,82.28-88.3s82.28,32.11,82.28,88.3v24.24c0,5.45-4.42,9.88-9.88,9.88h-32.43c-5.45,0-9.88-4.42-9.88-9.88v-27.75c0-25.09-11.04-34.62-28.6-34.62s-28.6,9.53-28.6,34.62v189.65c0,25.09,11.04,34.12,28.6,34.12s28.6-9.03,28.6-34.12v-54.85c0-5.45-4.42-9.88-9.88-9.88h-5.33c-5.45,0-9.88-4.42-9.88-9.88v-30.42c0-5.45,4.42-9.88,9.88-9.88Z"/>
      <path class="cls-1" d="M716.92,355.22h-35.6c-4.89,0-9.04-3.58-9.77-8.41l-7.01-46.89c-.72-4.84-4.88-8.41-9.77-8.41h-50.72c-4.89,0-9.04,3.58-9.77,8.41l-7.01,46.89c-.72,4.84-4.88,8.41-9.77,8.41h-30.58c-6.08,0-10.71-5.44-9.75-11.44L590.2,12.33c.77-4.79,4.9-8.32,9.75-8.32h63.93c4.85,0,8.99,3.52,9.75,8.32l53.03,331.45c.96,6-3.68,11.44-9.75,11.44ZM614.03,243.84h30.25c6.04,0,10.66-5.37,9.77-11.34l-15.13-101.03c-1.68-11.22-17.85-11.22-19.53,0l-15.13,101.03c-.89,5.97,3.73,11.34,9.77,11.34Z"/>
      <path class="cls-1" d="M763.96,4.01h35.44c5.45,0,9.88,4.42,9.88,9.88v281.28c0,5.45,4.42,9.88,9.88,9.88h71.06c5.45,0,9.88,4.42,9.88,9.88v30.42c0,5.45-4.42,9.88-9.88,9.88h-126.25c-5.45,0-9.88-4.42-9.88-9.88V13.89c0-5.45,4.42-9.88,9.88-9.88Z"/>
      <path class="cls-1" d="M911.47,154.53h80.59c5.45,0,9.88,4.42,9.88,9.88v30.42c0,5.45-4.42,9.88-9.88,9.88h-80.59c-5.45,0-9.88-4.42-9.88-9.88v-30.42c0-5.45,4.42-9.88,9.88-9.88Z"/>
      <path class="cls-1" d="M1104.63,152.02h56.01c5.45,0,9.88,4.42,9.88,9.88v30.42c0,5.45-4.42,9.88-9.88,9.88h-56.01c-5.45,0-9.88,4.42-9.88,9.88v83.1c0,5.45,4.42,9.88,9.88,9.88h75.57c5.45,0,9.88,4.42,9.88,9.88v30.42c0,5.45-4.42,9.88-9.88,9.88h-130.76c-5.45,0-9.88-4.42-9.88-9.88V13.89c0-5.45,4.42-9.88,9.88-9.88h130.76c5.45,0,9.88,4.42,9.88,9.88v30.42c0,5.45-4.42,9.88-9.88,9.88h-75.57c-5.45,0-9.88,4.42-9.88,9.88v78.08c0,5.45,4.42,9.88,9.88,9.88Z"/>
      <path class="cls-1" d="M1377.23,13.89v37.32c0,1.3-.26,2.59-.76,3.8l-98.41,236.37c-2.71,6.5,2.07,13.67,9.12,13.67h80.17c5.45,0,9.88,4.42,9.88,9.88v30.42c0,5.45-4.42,9.88-9.88,9.88h-141.8c-5.45,0-9.88-4.42-9.88-9.88v-37.32c0-1.3.26-2.59.76-3.8l98.41-236.37c2.71-6.5-2.07-13.67-9.12-13.67h-75.16c-5.45,0-9.88-4.42-9.88-9.88V13.89c0-5.45,4.42-9.88,9.88-9.88h136.79c5.45,0,9.88,4.42,9.88,9.88Z"/>
      <path class="cls-1" d="M1474.9,152.02h56.01c5.45,0,9.88,4.42,9.88,9.88v30.42c0,5.45-4.42,9.88-9.88,9.88h-56.01c-5.45,0-9.88,4.42-9.88,9.88v83.1c0,5.45,4.42,9.88,9.88,9.88h75.57c5.45,0,9.88,4.42,9.88,9.88v30.42c0,5.45-4.42,9.88-9.88,9.88h-130.76c-5.45,0-9.88-4.42-9.88-9.88V13.89c0-5.45,4.42-9.88,9.88-9.88h130.76c5.45,0,9.88,4.42,9.88,9.88v30.42c0,5.45-4.42,9.88-9.88,9.88h-75.57c-5.45,0-9.88,4.42-9.88,9.88v78.08c0,5.45,4.42,9.88,9.88,9.88Z"/>
    </g>
    <g>
      <path d="M20.13,427.23c3.08-1.97,6.58-2.95,10.49-2.95,2.16,0,4.21.3,6.15.89,1.93.6,3.68,1.48,5.25,2.65,1.57,1.17,2.89,2.6,3.98,4.27,1.08,1.68,1.82,3.62,2.22,5.83h10.34c-.57-3.65-1.68-6.89-3.31-9.73-1.64-2.84-3.7-5.25-6.2-7.22-2.5-1.98-5.31-3.48-8.43-4.51-3.13-1.03-6.49-1.54-10.09-1.54-5.85,0-11.08,1.4-15.67,4.19-4.59,2.8-8.22,6.79-10.87,12-2.65,5.2-3.98,11.43-3.98,18.67s1.32,13.44,3.96,18.66c2.64,5.21,6.26,9.22,10.85,12.01,4.59,2.8,9.83,4.19,15.71,4.19,3.73,0,7.18-.55,10.34-1.66s5.97-2.67,8.43-4.69c2.46-2.02,4.48-4.43,6.06-7.22,1.58-2.8,2.65-5.86,3.2-9.2l-10.34-.03c-.42,2.17-1.18,4.08-2.27,5.75-1.09,1.67-2.42,3.08-3.99,4.23-1.57,1.15-3.32,2.02-5.25,2.6-1.93.58-3.97.88-6.11.88-3.87,0-7.35-.97-10.44-2.92s-5.53-4.82-7.31-8.62c-1.78-3.8-2.67-8.46-2.67-13.98s.89-10.12,2.67-13.92c1.78-3.8,4.21-6.68,7.29-8.65Z"/>
      <path d="M138.36,419.13c-4.61-2.79-9.84-4.19-15.69-4.19s-11.12,1.4-15.72,4.19c-4.61,2.8-8.23,6.79-10.89,12-2.65,5.2-3.98,11.43-3.98,18.67s1.33,13.44,3.98,18.66c2.65,5.21,6.28,9.22,10.89,12.01,4.61,2.8,9.85,4.19,15.72,4.19s11.08-1.4,15.69-4.19c4.61-2.79,8.23-6.79,10.89-11.99,2.65-5.2,3.98-11.43,3.98-18.67s-1.33-13.47-3.98-18.67-6.28-9.2-10.89-12ZM140.41,463.77c-1.78,3.79-4.21,6.66-7.29,8.62-3.08,1.95-6.57,2.93-10.45,2.93s-7.4-.98-10.47-2.93c-3.07-1.96-5.5-4.83-7.27-8.62-1.78-3.79-2.67-8.44-2.67-13.97s.89-10.18,2.67-13.97c1.78-3.79,4.2-6.66,7.27-8.62,3.07-1.96,6.56-2.93,10.47-2.93s7.37.98,10.45,2.93c3.08,1.95,5.51,4.83,7.29,8.62s2.67,8.44,2.67,13.97-.89,10.18-2.67,13.97Z"/>
      <polygon points="234.04 465.7 233.41 465.7 198.88 415.87 189.4 415.87 189.4 483.73 199.64 483.73 199.64 433.96 200.27 433.96 234.77 483.73 244.18 483.73 244.18 415.87 234.04 415.87 234.04 465.7"/>
      <polygon points="279.2 424.68 300.34 424.68 300.34 483.73 310.55 483.73 310.55 424.68 331.72 424.68 331.72 415.87 279.2 415.87 279.2 424.68"/>
      <path d="M404.01,455.43c3.48-1.74,6.09-4.19,7.82-7.34,1.73-3.15,2.6-6.8,2.6-10.95s-.86-7.86-2.59-11.05c-1.72-3.19-4.32-5.69-7.8-7.51s-7.85-2.72-13.11-2.72h-24.19v67.87h10.24v-25.68h13.92c.22,0,.43-.01.65-.01l13.79,25.7h11.66l-15.02-27.44c.7-.26,1.38-.54,2.02-.86ZM376.99,424.65h12.86c3.38,0,6.11.5,8.2,1.51s3.62,2.45,4.61,4.32c.98,1.88,1.47,4.1,1.47,6.66s-.49,4.72-1.46,6.53c-.97,1.81-2.5,3.19-4.59,4.14-2.09.95-4.79,1.42-8.1,1.42h-12.99v-24.59Z"/>
      <path d="M469.67,415.87l-24.42,67.87h10.87l6.22-17.96h26.52l6.2,17.96h10.87l-24.42-67.87h-11.83ZM465.31,457.16l10.02-28.96h.53l10.01,28.96h-20.56Z"/>
      <path d="M553.91,427.23c3.08-1.97,6.58-2.95,10.49-2.95,2.16,0,4.21.3,6.15.89,1.93.6,3.68,1.48,5.25,2.65,1.57,1.17,2.89,2.6,3.98,4.27,1.08,1.68,1.82,3.62,2.22,5.83h10.34c-.57-3.65-1.68-6.89-3.31-9.73-1.64-2.84-3.7-5.25-6.2-7.22-2.5-1.98-5.31-3.48-8.43-4.51-3.13-1.03-6.49-1.54-10.09-1.54-5.85,0-11.08,1.4-15.67,4.19-4.59,2.8-8.22,6.79-10.87,12-2.65,5.2-3.98,11.43-3.98,18.67s1.32,13.44,3.96,18.66c2.64,5.21,6.26,9.22,10.85,12.01,4.59,2.8,9.83,4.19,15.71,4.19,3.73,0,7.18-.55,10.34-1.66s5.97-2.67,8.43-4.69c2.46-2.02,4.48-4.43,6.06-7.22,1.58-2.8,2.65-5.86,3.2-9.2l-10.34-.03c-.42,2.17-1.18,4.08-2.27,5.75-1.09,1.67-2.42,3.08-3.99,4.23-1.57,1.15-3.32,2.02-5.25,2.6-1.93.58-3.97.88-6.11.88-3.87,0-7.35-.97-10.44-2.92s-5.53-4.82-7.31-8.62c-1.78-3.8-2.67-8.46-2.67-13.98s.89-10.12,2.67-13.92c1.78-3.8,4.21-6.68,7.29-8.65Z"/>
      <polygon points="624.71 424.68 645.85 424.68 645.85 483.73 656.05 483.73 656.05 424.68 677.23 424.68 677.23 415.87 624.71 415.87 624.71 424.68"/>
      <path d="M755.89,459.67c0,3.07-.67,5.8-2,8.18-1.34,2.39-3.26,4.26-5.77,5.62-2.51,1.36-5.48,2.04-8.93,2.04s-6.38-.68-8.88-2.04-4.42-3.23-5.78-5.62c-1.36-2.39-2.04-5.11-2.04-8.18v-43.81h-10.24v44.64c0,4.75,1.12,8.95,3.35,12.61,2.23,3.66,5.37,6.53,9.41,8.62s8.77,3.13,14.18,3.13,10.17-1.04,14.22-3.13c4.04-2.09,7.18-4.96,9.41-8.62,2.23-3.66,3.35-7.86,3.35-12.61v-44.64h-10.27v43.81Z"/>
      <path d="M823.82,415.87l-24.42,67.87h10.87l6.22-17.96h26.52l6.2,17.96h10.87l-24.42-67.87h-11.83ZM819.46,457.16l10.02-28.96h.53l10.01,28.96h-20.56Z"/>
      <polygon points="903.54 415.87 893.3 415.87 893.3 483.73 934.29 483.73 934.29 474.92 903.54 474.92 903.54 415.87"/>
      <polygon points="1026.77 454.14 1056.86 454.14 1056.86 445.36 1026.77 445.36 1026.77 424.68 1059.08 424.68 1059.08 415.87 1016.53 415.87 1016.53 483.73 1059.48 483.73 1059.48 474.92 1026.77 474.92 1026.77 454.14"/>
      <polygon points="1148.25 415.87 1136.39 415.87 1120.15 442.41 1119.62 442.41 1103.38 415.87 1091.52 415.87 1113.02 449.8 1091.38 483.73 1103.31 483.73 1119.62 457.55 1120.15 457.55 1136.45 483.73 1148.38 483.73 1127.11 449.8 1148.25 415.87"/>
      <path d="M1219.19,418.75c-3.47-1.92-7.84-2.88-13.12-2.88h-24.19v67.87h10.24v-23.86h13.92c5.26,0,9.63-.97,13.11-2.9,3.48-1.93,6.09-4.56,7.82-7.89,1.73-3.32,2.6-7.07,2.6-11.25s-.86-7.89-2.58-11.22c-1.72-3.32-4.32-5.95-7.79-7.87ZM1217.8,444.7c-.97,2.01-2.5,3.59-4.57,4.75-2.08,1.16-4.78,1.74-8.12,1.74h-12.99v-26.54h12.86c3.4,0,6.15.56,8.23,1.69s3.62,2.68,4.59,4.67c.97,1.99,1.46,4.26,1.46,6.83s-.49,4.85-1.46,6.86Z"/>
      <polygon points="1275.22 454.14 1305.31 454.14 1305.31 445.36 1275.22 445.36 1275.22 424.68 1307.53 424.68 1307.53 415.87 1264.98 415.87 1264.98 483.73 1307.93 483.73 1307.93 474.92 1275.22 474.92 1275.22 454.14"/>
      <path d="M1381.97,455.43c3.48-1.74,6.09-4.19,7.82-7.34,1.73-3.15,2.6-6.8,2.6-10.95s-.86-7.86-2.58-11.05c-1.72-3.19-4.32-5.69-7.8-7.51-3.48-1.81-7.85-2.72-13.11-2.72h-24.19v67.87h10.24v-25.68h13.92c.22,0,.44-.01.65-.01l13.79,25.7h11.66l-15.03-27.44c.7-.26,1.38-.54,2.02-.86ZM1354.95,424.65h12.86c3.38,0,6.11.5,8.2,1.51,2.09,1.01,3.62,2.45,4.61,4.32.98,1.88,1.47,4.1,1.47,6.66s-.49,4.72-1.46,6.53-2.5,3.19-4.59,4.14c-2.09.95-4.79,1.42-8.1,1.42h-12.99v-24.59Z"/>
      <polygon points="1424.99 424.68 1446.13 424.68 1446.13 483.73 1456.34 483.73 1456.34 424.68 1477.51 424.68 1477.51 415.87 1424.99 415.87 1424.99 424.68"/>
      <path d="M1558.55,457.12c-1.2-2.19-2.78-4.02-4.72-5.5-1.94-1.48-4.05-2.67-6.33-3.58-2.27-.91-4.5-1.62-6.66-2.15l-6.63-1.72c-1.33-.33-2.71-.76-4.14-1.28-1.44-.52-2.78-1.17-4.03-1.95-1.25-.78-2.25-1.76-3.02-2.93-.76-1.17-1.14-2.56-1.14-4.17,0-1.92.56-3.64,1.67-5.15,1.12-1.51,2.69-2.71,4.72-3.58,2.03-.87,4.44-1.31,7.22-1.31,3.89,0,7.11.87,9.68,2.6,2.56,1.74,4.02,4.17,4.37,7.31h9.88c-.09-3.64-1.15-6.88-3.18-9.69-2.03-2.82-4.81-5.03-8.33-6.64-3.52-1.61-7.58-2.42-12.18-2.42s-8.64.81-12.26,2.44c-3.62,1.62-6.5,3.89-8.62,6.81-2.12,2.92-3.18,6.33-3.18,10.24,0,4.73,1.58,8.53,4.75,11.4s7.47,5.05,12.91,6.53l8.02,2.19c2.43.64,4.61,1.38,6.54,2.22,1.93.84,3.47,1.9,4.61,3.18,1.14,1.28,1.71,2.93,1.71,4.94,0,2.21-.65,4.14-1.96,5.78-1.3,1.65-3.09,2.93-5.35,3.84-2.27.92-4.84,1.38-7.74,1.38-2.63,0-5.04-.39-7.24-1.18-2.2-.78-4-1.99-5.4-3.61-1.4-1.62-2.2-3.66-2.4-6.11h-10.27c.22,4.09,1.38,7.62,3.48,10.59,2.1,2.97,5,5.26,8.71,6.88,3.71,1.61,8.11,2.42,13.19,2.42s9.82-.86,13.57-2.58,6.61-4.08,8.58-7.06c1.98-2.98,2.97-6.39,2.97-10.24,0-3.05-.6-5.67-1.81-7.85Z"/>
    </g>
  </g>
</svg>